<mxfile host="app.diagrams.net" modified="2023-07-17T11:07:06.066Z" agent="Mozilla/5.0 (Windows NT 10.0; Win64; x64) AppleWebKit/537.36 (KHTML, like Gecko) Chrome/114.0.0.0 Safari/537.36 Edg/114.0.1823.67" etag="bdgh0WBI-qDx87gcY0sp" version="21.3.2" type="device">
  <diagram id="ekLerv10-5Og8tD3GVhr" name="class-diagram">
    <mxGraphModel dx="2076" dy="621" grid="1" gridSize="10" guides="1" tooltips="1" connect="1" arrows="1" fold="1" page="1" pageScale="1" pageWidth="850" pageHeight="1100" math="0" shadow="0">
      <root>
        <mxCell id="8sShPmPlEh92SBYfi-gu-0" />
        <mxCell id="8sShPmPlEh92SBYfi-gu-1" parent="8sShPmPlEh92SBYfi-gu-0" />
        <mxCell id="lV3ypTKFiCRqfz8kw8Yi-0" value="NameIdentifier" style="swimlane;fontStyle=1;align=center;verticalAlign=top;childLayout=stackLayout;horizontal=1;startSize=26;horizontalStack=0;resizeParent=1;resizeParentMax=0;resizeLast=0;collapsible=1;marginBottom=0;" parent="8sShPmPlEh92SBYfi-gu-1" vertex="1">
          <mxGeometry x="640" y="953" width="280" height="164" as="geometry" />
        </mxCell>
        <mxCell id="lV3ypTKFiCRqfz8kw8Yi-1" value="&lt;&lt;property, init&gt;&gt; + Code: string" style="text;strokeColor=none;fillColor=none;align=left;verticalAlign=top;spacingLeft=4;spacingRight=4;overflow=hidden;rotatable=0;points=[[0,0.5],[1,0.5]];portConstraint=eastwest;" parent="lV3ypTKFiCRqfz8kw8Yi-0" vertex="1">
          <mxGeometry y="26" width="280" height="26" as="geometry" />
        </mxCell>
        <mxCell id="lV3ypTKFiCRqfz8kw8Yi-2" value="" style="line;strokeWidth=1;fillColor=none;align=left;verticalAlign=middle;spacingTop=-1;spacingLeft=3;spacingRight=3;rotatable=0;labelPosition=right;points=[];portConstraint=eastwest;" parent="lV3ypTKFiCRqfz8kw8Yi-0" vertex="1">
          <mxGeometry y="52" width="280" height="8" as="geometry" />
        </mxCell>
        <mxCell id="lV3ypTKFiCRqfz8kw8Yi-3" value="&lt;&lt;constructor&gt;&gt; + NameIdentifier(string isniCode)" style="text;strokeColor=none;fillColor=none;align=left;verticalAlign=top;spacingLeft=4;spacingRight=4;overflow=hidden;rotatable=0;points=[[0,0.5],[1,0.5]];portConstraint=eastwest;" parent="lV3ypTKFiCRqfz8kw8Yi-0" vertex="1">
          <mxGeometry y="60" width="280" height="26" as="geometry" />
        </mxCell>
        <mxCell id="lV3ypTKFiCRqfz8kw8Yi-6" value="- ValidateCode(string isniCode): bool" style="text;strokeColor=none;fillColor=none;align=left;verticalAlign=top;spacingLeft=4;spacingRight=4;overflow=hidden;rotatable=0;points=[[0,0.5],[1,0.5]];portConstraint=eastwest;fontStyle=4" parent="lV3ypTKFiCRqfz8kw8Yi-0" vertex="1">
          <mxGeometry y="86" width="280" height="26" as="geometry" />
        </mxCell>
        <mxCell id="lV3ypTKFiCRqfz8kw8Yi-4" value="+ GetUri(): Uri" style="text;strokeColor=none;fillColor=none;align=left;verticalAlign=top;spacingLeft=4;spacingRight=4;overflow=hidden;rotatable=0;points=[[0,0.5],[1,0.5]];portConstraint=eastwest;" parent="lV3ypTKFiCRqfz8kw8Yi-0" vertex="1">
          <mxGeometry y="112" width="280" height="26" as="geometry" />
        </mxCell>
        <mxCell id="lV3ypTKFiCRqfz8kw8Yi-5" value="+ ToString(): string" style="text;strokeColor=none;fillColor=none;align=left;verticalAlign=top;spacingLeft=4;spacingRight=4;overflow=hidden;rotatable=0;points=[[0,0.5],[1,0.5]];portConstraint=eastwest;" parent="lV3ypTKFiCRqfz8kw8Yi-0" vertex="1">
          <mxGeometry y="138" width="280" height="26" as="geometry" />
        </mxCell>
        <mxCell id="lV3ypTKFiCRqfz8kw8Yi-13" value="BookNumber" style="swimlane;fontStyle=1;align=center;verticalAlign=top;childLayout=stackLayout;horizontal=1;startSize=26;horizontalStack=0;resizeParent=1;resizeParentMax=0;resizeLast=0;collapsible=1;marginBottom=0;" parent="8sShPmPlEh92SBYfi-gu-1" vertex="1">
          <mxGeometry x="640" y="493" width="280" height="216" as="geometry" />
        </mxCell>
        <mxCell id="lV3ypTKFiCRqfz8kw8Yi-20" value="&lt;&lt;readonly&gt;&gt; - code: string" style="text;strokeColor=none;fillColor=none;align=left;verticalAlign=top;spacingLeft=4;spacingRight=4;overflow=hidden;rotatable=0;points=[[0,0.5],[1,0.5]];portConstraint=eastwest;" parent="lV3ypTKFiCRqfz8kw8Yi-13" vertex="1">
          <mxGeometry y="26" width="280" height="26" as="geometry" />
        </mxCell>
        <mxCell id="lV3ypTKFiCRqfz8kw8Yi-14" value="&lt;&lt;get&gt;&gt; + Code: string" style="text;strokeColor=none;fillColor=none;align=left;verticalAlign=top;spacingLeft=4;spacingRight=4;overflow=hidden;rotatable=0;points=[[0,0.5],[1,0.5]];portConstraint=eastwest;" parent="lV3ypTKFiCRqfz8kw8Yi-13" vertex="1">
          <mxGeometry y="52" width="280" height="26" as="geometry" />
        </mxCell>
        <mxCell id="lV3ypTKFiCRqfz8kw8Yi-15" value="" style="line;strokeWidth=1;fillColor=none;align=left;verticalAlign=middle;spacingTop=-1;spacingLeft=3;spacingRight=3;rotatable=0;labelPosition=right;points=[];portConstraint=eastwest;" parent="lV3ypTKFiCRqfz8kw8Yi-13" vertex="1">
          <mxGeometry y="78" width="280" height="8" as="geometry" />
        </mxCell>
        <mxCell id="lV3ypTKFiCRqfz8kw8Yi-16" value="&lt;&lt;constructor&gt;&gt; + BookNumber(string isbnCode)" style="text;strokeColor=none;fillColor=none;align=left;verticalAlign=top;spacingLeft=4;spacingRight=4;overflow=hidden;rotatable=0;points=[[0,0.5],[1,0.5]];portConstraint=eastwest;" parent="lV3ypTKFiCRqfz8kw8Yi-13" vertex="1">
          <mxGeometry y="86" width="280" height="26" as="geometry" />
        </mxCell>
        <mxCell id="lV3ypTKFiCRqfz8kw8Yi-17" value="- ValidateCode(string isbnCode): bool" style="text;strokeColor=none;fillColor=none;align=left;verticalAlign=top;spacingLeft=4;spacingRight=4;overflow=hidden;rotatable=0;points=[[0,0.5],[1,0.5]];portConstraint=eastwest;fontStyle=4" parent="lV3ypTKFiCRqfz8kw8Yi-13" vertex="1">
          <mxGeometry y="112" width="280" height="26" as="geometry" />
        </mxCell>
        <mxCell id="lV3ypTKFiCRqfz8kw8Yi-23" value="- ValidateChecksum(string isbnCode): bool" style="text;strokeColor=none;fillColor=none;align=left;verticalAlign=top;spacingLeft=4;spacingRight=4;overflow=hidden;rotatable=0;points=[[0,0.5],[1,0.5]];portConstraint=eastwest;fontStyle=4" parent="lV3ypTKFiCRqfz8kw8Yi-13" vertex="1">
          <mxGeometry y="138" width="280" height="26" as="geometry" />
        </mxCell>
        <mxCell id="lV3ypTKFiCRqfz8kw8Yi-18" value="+ GetSearchUri(): Uri" style="text;strokeColor=none;fillColor=none;align=left;verticalAlign=top;spacingLeft=4;spacingRight=4;overflow=hidden;rotatable=0;points=[[0,0.5],[1,0.5]];portConstraint=eastwest;" parent="lV3ypTKFiCRqfz8kw8Yi-13" vertex="1">
          <mxGeometry y="164" width="280" height="26" as="geometry" />
        </mxCell>
        <mxCell id="lV3ypTKFiCRqfz8kw8Yi-19" value="+ ToString(): string" style="text;strokeColor=none;fillColor=none;align=left;verticalAlign=top;spacingLeft=4;spacingRight=4;overflow=hidden;rotatable=0;points=[[0,0.5],[1,0.5]];portConstraint=eastwest;" parent="lV3ypTKFiCRqfz8kw8Yi-13" vertex="1">
          <mxGeometry y="190" width="280" height="26" as="geometry" />
        </mxCell>
        <mxCell id="lV3ypTKFiCRqfz8kw8Yi-28" value="BookAuthor" style="swimlane;fontStyle=1;align=center;verticalAlign=top;childLayout=stackLayout;horizontal=1;startSize=26;horizontalStack=0;resizeParent=1;resizeParentMax=0;resizeLast=0;collapsible=1;marginBottom=0;" parent="8sShPmPlEh92SBYfi-gu-1" vertex="1">
          <mxGeometry x="260" y="880" width="280" height="310" as="geometry" />
        </mxCell>
        <mxCell id="lV3ypTKFiCRqfz8kw8Yi-29" value="&lt;&lt;get&gt;&gt; + AuthorName: string" style="text;strokeColor=none;fillColor=none;align=left;verticalAlign=top;spacingLeft=4;spacingRight=4;overflow=hidden;rotatable=0;points=[[0,0.5],[1,0.5]];portConstraint=eastwest;" parent="lV3ypTKFiCRqfz8kw8Yi-28" vertex="1">
          <mxGeometry y="26" width="280" height="26" as="geometry" />
        </mxCell>
        <mxCell id="lV3ypTKFiCRqfz8kw8Yi-35" value="&lt;&lt;set&gt;&gt; - AuthorName: string" style="text;strokeColor=none;fillColor=none;align=left;verticalAlign=top;spacingLeft=4;spacingRight=4;overflow=hidden;rotatable=0;points=[[0,0.5],[1,0.5]];portConstraint=eastwest;" parent="lV3ypTKFiCRqfz8kw8Yi-28" vertex="1">
          <mxGeometry y="52" width="280" height="26" as="geometry" />
        </mxCell>
        <mxCell id="lV3ypTKFiCRqfz8kw8Yi-36" value="&lt;&lt;get&gt;&gt; + HasIsni: bool" style="text;strokeColor=none;fillColor=none;align=left;verticalAlign=top;spacingLeft=4;spacingRight=4;overflow=hidden;rotatable=0;points=[[0,0.5],[1,0.5]];portConstraint=eastwest;" parent="lV3ypTKFiCRqfz8kw8Yi-28" vertex="1">
          <mxGeometry y="78" width="280" height="26" as="geometry" />
        </mxCell>
        <mxCell id="lV3ypTKFiCRqfz8kw8Yi-37" value="&lt;&lt;set&gt;&gt; - HasIsni: bool" style="text;strokeColor=none;fillColor=none;align=left;verticalAlign=top;spacingLeft=4;spacingRight=4;overflow=hidden;rotatable=0;points=[[0,0.5],[1,0.5]];portConstraint=eastwest;" parent="lV3ypTKFiCRqfz8kw8Yi-28" vertex="1">
          <mxGeometry y="104" width="280" height="26" as="geometry" />
        </mxCell>
        <mxCell id="lV3ypTKFiCRqfz8kw8Yi-38" value="&lt;&lt;get&gt;&gt; + Isni: NameIdentifier" style="text;strokeColor=none;fillColor=none;align=left;verticalAlign=top;spacingLeft=4;spacingRight=4;overflow=hidden;rotatable=0;points=[[0,0.5],[1,0.5]];portConstraint=eastwest;" parent="lV3ypTKFiCRqfz8kw8Yi-28" vertex="1">
          <mxGeometry y="130" width="280" height="26" as="geometry" />
        </mxCell>
        <mxCell id="lV3ypTKFiCRqfz8kw8Yi-39" value="&lt;&lt;set&gt;&gt; - Isni: NameIdentifier" style="text;strokeColor=none;fillColor=none;align=left;verticalAlign=top;spacingLeft=4;spacingRight=4;overflow=hidden;rotatable=0;points=[[0,0.5],[1,0.5]];portConstraint=eastwest;" parent="lV3ypTKFiCRqfz8kw8Yi-28" vertex="1">
          <mxGeometry y="156" width="280" height="26" as="geometry" />
        </mxCell>
        <mxCell id="lV3ypTKFiCRqfz8kw8Yi-30" value="" style="line;strokeWidth=1;fillColor=none;align=left;verticalAlign=middle;spacingTop=-1;spacingLeft=3;spacingRight=3;rotatable=0;labelPosition=right;points=[];portConstraint=eastwest;" parent="lV3ypTKFiCRqfz8kw8Yi-28" vertex="1">
          <mxGeometry y="182" width="280" height="8" as="geometry" />
        </mxCell>
        <mxCell id="lV3ypTKFiCRqfz8kw8Yi-31" value="&lt;&lt;constructor&gt;&gt; + BookAuthor(string authorName)" style="text;strokeColor=none;fillColor=none;align=left;verticalAlign=top;spacingLeft=4;spacingRight=4;overflow=hidden;rotatable=0;points=[[0,0.5],[1,0.5]];portConstraint=eastwest;" parent="lV3ypTKFiCRqfz8kw8Yi-28" vertex="1">
          <mxGeometry y="190" width="280" height="26" as="geometry" />
        </mxCell>
        <mxCell id="lV3ypTKFiCRqfz8kw8Yi-40" value="&lt;&lt;constructor&gt;&gt; + BookAuthor(string authorName,&#xa;    string isniCode)" style="text;strokeColor=none;fillColor=none;align=left;verticalAlign=top;spacingLeft=4;spacingRight=4;overflow=hidden;rotatable=0;points=[[0,0.5],[1,0.5]];portConstraint=eastwest;" parent="lV3ypTKFiCRqfz8kw8Yi-28" vertex="1">
          <mxGeometry y="216" width="280" height="34" as="geometry" />
        </mxCell>
        <mxCell id="lV3ypTKFiCRqfz8kw8Yi-41" value="&lt;&lt;constructor&gt;&gt; + BookAuthor(string authorName,&#xa;    NameIdentifier nameIdentifier)" style="text;strokeColor=none;fillColor=none;align=left;verticalAlign=top;spacingLeft=4;spacingRight=4;overflow=hidden;rotatable=0;points=[[0,0.5],[1,0.5]];portConstraint=eastwest;" parent="lV3ypTKFiCRqfz8kw8Yi-28" vertex="1">
          <mxGeometry y="250" width="280" height="34" as="geometry" />
        </mxCell>
        <mxCell id="lV3ypTKFiCRqfz8kw8Yi-34" value="+ ToString(): string" style="text;strokeColor=none;fillColor=none;align=left;verticalAlign=top;spacingLeft=4;spacingRight=4;overflow=hidden;rotatable=0;points=[[0,0.5],[1,0.5]];portConstraint=eastwest;" parent="lV3ypTKFiCRqfz8kw8Yi-28" vertex="1">
          <mxGeometry y="284" width="280" height="26" as="geometry" />
        </mxCell>
        <mxCell id="lV3ypTKFiCRqfz8kw8Yi-42" value="" style="endArrow=open;endSize=12;dashed=1;html=1;rounded=0;" parent="8sShPmPlEh92SBYfi-gu-1" source="lV3ypTKFiCRqfz8kw8Yi-28" target="lV3ypTKFiCRqfz8kw8Yi-0" edge="1">
          <mxGeometry width="160" relative="1" as="geometry">
            <mxPoint x="330" y="340" as="sourcePoint" />
            <mxPoint x="610" y="150" as="targetPoint" />
          </mxGeometry>
        </mxCell>
        <mxCell id="lV3ypTKFiCRqfz8kw8Yi-43" value="BookPublication" style="swimlane;fontStyle=1;align=center;verticalAlign=top;childLayout=stackLayout;horizontal=1;startSize=26;horizontalStack=0;resizeParent=1;resizeParentMax=0;resizeLast=0;collapsible=1;marginBottom=0;" parent="8sShPmPlEh92SBYfi-gu-1" vertex="1">
          <mxGeometry x="240" y="400" width="320" height="402" as="geometry" />
        </mxCell>
        <mxCell id="lV3ypTKFiCRqfz8kw8Yi-44" value="&lt;&lt;property, init&gt;&gt; + Author: BookAuthor" style="text;strokeColor=none;fillColor=none;align=left;verticalAlign=top;spacingLeft=4;spacingRight=4;overflow=hidden;rotatable=0;points=[[0,0.5],[1,0.5]];portConstraint=eastwest;" parent="lV3ypTKFiCRqfz8kw8Yi-43" vertex="1">
          <mxGeometry y="26" width="320" height="26" as="geometry" />
        </mxCell>
        <mxCell id="lV3ypTKFiCRqfz8kw8Yi-50" value="&lt;&lt;property, init&gt;&gt; + Title: string" style="text;strokeColor=none;fillColor=none;align=left;verticalAlign=top;spacingLeft=4;spacingRight=4;overflow=hidden;rotatable=0;points=[[0,0.5],[1,0.5]];portConstraint=eastwest;" parent="lV3ypTKFiCRqfz8kw8Yi-43" vertex="1">
          <mxGeometry y="52" width="320" height="26" as="geometry" />
        </mxCell>
        <mxCell id="lV3ypTKFiCRqfz8kw8Yi-51" value="&lt;&lt;property, init&gt;&gt; + Publisher: string" style="text;strokeColor=none;fillColor=none;align=left;verticalAlign=top;spacingLeft=4;spacingRight=4;overflow=hidden;rotatable=0;points=[[0,0.5],[1,0.5]];portConstraint=eastwest;" parent="lV3ypTKFiCRqfz8kw8Yi-43" vertex="1">
          <mxGeometry y="78" width="320" height="26" as="geometry" />
        </mxCell>
        <mxCell id="lV3ypTKFiCRqfz8kw8Yi-52" value="&lt;&lt;property, init&gt;&gt; + Published: DateTime" style="text;strokeColor=none;fillColor=none;align=left;verticalAlign=top;spacingLeft=4;spacingRight=4;overflow=hidden;rotatable=0;points=[[0,0.5],[1,0.5]];portConstraint=eastwest;" parent="lV3ypTKFiCRqfz8kw8Yi-43" vertex="1">
          <mxGeometry y="104" width="320" height="26" as="geometry" />
        </mxCell>
        <mxCell id="lV3ypTKFiCRqfz8kw8Yi-53" value="&lt;&lt;property, init&gt;&gt; + BookBinding: BookBindingKind" style="text;strokeColor=none;fillColor=none;align=left;verticalAlign=top;spacingLeft=4;spacingRight=4;overflow=hidden;rotatable=0;points=[[0,0.5],[1,0.5]];portConstraint=eastwest;" parent="lV3ypTKFiCRqfz8kw8Yi-43" vertex="1">
          <mxGeometry y="130" width="320" height="26" as="geometry" />
        </mxCell>
        <mxCell id="lV3ypTKFiCRqfz8kw8Yi-54" value="&lt;&lt;property, init&gt;&gt; + Isbn: BookNumber" style="text;strokeColor=none;fillColor=none;align=left;verticalAlign=top;spacingLeft=4;spacingRight=4;overflow=hidden;rotatable=0;points=[[0,0.5],[1,0.5]];portConstraint=eastwest;" parent="lV3ypTKFiCRqfz8kw8Yi-43" vertex="1">
          <mxGeometry y="156" width="320" height="26" as="geometry" />
        </mxCell>
        <mxCell id="lV3ypTKFiCRqfz8kw8Yi-45" value="" style="line;strokeWidth=1;fillColor=none;align=left;verticalAlign=middle;spacingTop=-1;spacingLeft=3;spacingRight=3;rotatable=0;labelPosition=right;points=[];portConstraint=eastwest;" parent="lV3ypTKFiCRqfz8kw8Yi-43" vertex="1">
          <mxGeometry y="182" width="320" height="8" as="geometry" />
        </mxCell>
        <mxCell id="lV3ypTKFiCRqfz8kw8Yi-46" value="&lt;&lt;constructor&gt;&gt; + BookPublication(string authorName,&#xa;    string title, string publisher, DateTime published,&#xa;    BookBindingKind bookBinding, string isbnCode)" style="text;strokeColor=none;fillColor=none;align=left;verticalAlign=top;spacingLeft=4;spacingRight=4;overflow=hidden;rotatable=0;points=[[0,0.5],[1,0.5]];portConstraint=eastwest;" parent="lV3ypTKFiCRqfz8kw8Yi-43" vertex="1">
          <mxGeometry y="190" width="320" height="50" as="geometry" />
        </mxCell>
        <mxCell id="lV3ypTKFiCRqfz8kw8Yi-55" value="&lt;&lt;constructor&gt;&gt; + BookPublication(string authorName,&#xa;    string isniCode, string title, string publisher,&#xa;    DateTime published, BookBindingKind bookBinding,&#xa;    string isbnCode)" style="text;strokeColor=none;fillColor=none;align=left;verticalAlign=top;spacingLeft=4;spacingRight=4;overflow=hidden;rotatable=0;points=[[0,0.5],[1,0.5]];portConstraint=eastwest;" parent="lV3ypTKFiCRqfz8kw8Yi-43" vertex="1">
          <mxGeometry y="240" width="320" height="60" as="geometry" />
        </mxCell>
        <mxCell id="lV3ypTKFiCRqfz8kw8Yi-56" value="&lt;&lt;constructor&gt;&gt; + BookPublication(BookAuthor author,&#xa;    string title, string publisher, DateTime published,&#xa;    BookBindingKind bookBinding, BookNumber isbn)" style="text;strokeColor=none;fillColor=none;align=left;verticalAlign=top;spacingLeft=4;spacingRight=4;overflow=hidden;rotatable=0;points=[[0,0.5],[1,0.5]];portConstraint=eastwest;" parent="lV3ypTKFiCRqfz8kw8Yi-43" vertex="1">
          <mxGeometry y="300" width="320" height="50" as="geometry" />
        </mxCell>
        <mxCell id="lV3ypTKFiCRqfz8kw8Yi-48" value="+ GetPublicationDateString(): string" style="text;strokeColor=none;fillColor=none;align=left;verticalAlign=top;spacingLeft=4;spacingRight=4;overflow=hidden;rotatable=0;points=[[0,0.5],[1,0.5]];portConstraint=eastwest;" parent="lV3ypTKFiCRqfz8kw8Yi-43" vertex="1">
          <mxGeometry y="350" width="320" height="26" as="geometry" />
        </mxCell>
        <mxCell id="lV3ypTKFiCRqfz8kw8Yi-49" value="+ ToString(): string" style="text;strokeColor=none;fillColor=none;align=left;verticalAlign=top;spacingLeft=4;spacingRight=4;overflow=hidden;rotatable=0;points=[[0,0.5],[1,0.5]];portConstraint=eastwest;" parent="lV3ypTKFiCRqfz8kw8Yi-43" vertex="1">
          <mxGeometry y="376" width="320" height="26" as="geometry" />
        </mxCell>
        <mxCell id="lV3ypTKFiCRqfz8kw8Yi-57" value="" style="endArrow=open;endSize=12;dashed=1;html=1;rounded=0;" parent="8sShPmPlEh92SBYfi-gu-1" source="lV3ypTKFiCRqfz8kw8Yi-43" target="lV3ypTKFiCRqfz8kw8Yi-13" edge="1">
          <mxGeometry width="160" relative="1" as="geometry">
            <mxPoint x="560" y="520" as="sourcePoint" />
            <mxPoint x="720" y="520" as="targetPoint" />
          </mxGeometry>
        </mxCell>
        <mxCell id="lV3ypTKFiCRqfz8kw8Yi-58" value="" style="endArrow=open;endSize=12;dashed=1;html=1;rounded=0;" parent="8sShPmPlEh92SBYfi-gu-1" source="lV3ypTKFiCRqfz8kw8Yi-43" target="lV3ypTKFiCRqfz8kw8Yi-28" edge="1">
          <mxGeometry width="160" relative="1" as="geometry">
            <mxPoint x="570" y="545.0952380952381" as="sourcePoint" />
            <mxPoint x="690" y="495.66666666666674" as="targetPoint" />
          </mxGeometry>
        </mxCell>
        <mxCell id="lV3ypTKFiCRqfz8kw8Yi-60" value="BookStoreItem" style="swimlane;fontStyle=1;align=center;verticalAlign=top;childLayout=stackLayout;horizontal=1;startSize=26;horizontalStack=0;resizeParent=1;resizeParentMax=0;resizeLast=0;collapsible=1;marginBottom=0;" parent="8sShPmPlEh92SBYfi-gu-1" vertex="1">
          <mxGeometry x="-200" y="433" width="360" height="336" as="geometry" />
        </mxCell>
        <mxCell id="lV3ypTKFiCRqfz8kw8Yi-72" value="- publication: BookPublication" style="text;strokeColor=none;fillColor=none;align=left;verticalAlign=top;spacingLeft=4;spacingRight=4;overflow=hidden;rotatable=0;points=[[0,0.5],[1,0.5]];portConstraint=eastwest;" parent="lV3ypTKFiCRqfz8kw8Yi-60" vertex="1">
          <mxGeometry y="26" width="360" height="26" as="geometry" />
        </mxCell>
        <mxCell id="lV3ypTKFiCRqfz8kw8Yi-73" value="- price: BookPrice" style="text;strokeColor=none;fillColor=none;align=left;verticalAlign=top;spacingLeft=4;spacingRight=4;overflow=hidden;rotatable=0;points=[[0,0.5],[1,0.5]];portConstraint=eastwest;" parent="lV3ypTKFiCRqfz8kw8Yi-60" vertex="1">
          <mxGeometry y="52" width="360" height="26" as="geometry" />
        </mxCell>
        <mxCell id="lV3ypTKFiCRqfz8kw8Yi-74" value="- amount: int" style="text;strokeColor=none;fillColor=none;align=left;verticalAlign=top;spacingLeft=4;spacingRight=4;overflow=hidden;rotatable=0;points=[[0,0.5],[1,0.5]];portConstraint=eastwest;" parent="lV3ypTKFiCRqfz8kw8Yi-60" vertex="1">
          <mxGeometry y="78" width="360" height="26" as="geometry" />
        </mxCell>
        <mxCell id="lV3ypTKFiCRqfz8kw8Yi-61" value="&lt;&lt;get, set&gt;&gt; + Publication: BookPublication" style="text;strokeColor=none;fillColor=none;align=left;verticalAlign=top;spacingLeft=4;spacingRight=4;overflow=hidden;rotatable=0;points=[[0,0.5],[1,0.5]];portConstraint=eastwest;" parent="lV3ypTKFiCRqfz8kw8Yi-60" vertex="1">
          <mxGeometry y="104" width="360" height="26" as="geometry" />
        </mxCell>
        <mxCell id="lV3ypTKFiCRqfz8kw8Yi-63" value="&lt;&lt;get, set&gt;&gt; + Price: BookPrice" style="text;strokeColor=none;fillColor=none;align=left;verticalAlign=top;spacingLeft=4;spacingRight=4;overflow=hidden;rotatable=0;points=[[0,0.5],[1,0.5]];portConstraint=eastwest;" parent="lV3ypTKFiCRqfz8kw8Yi-60" vertex="1">
          <mxGeometry y="130" width="360" height="26" as="geometry" />
        </mxCell>
        <mxCell id="lV3ypTKFiCRqfz8kw8Yi-65" value="&lt;&lt;get, set&gt;&gt; + Amount: int" style="text;strokeColor=none;fillColor=none;align=left;verticalAlign=top;spacingLeft=4;spacingRight=4;overflow=hidden;rotatable=0;points=[[0,0.5],[1,0.5]];portConstraint=eastwest;" parent="lV3ypTKFiCRqfz8kw8Yi-60" vertex="1">
          <mxGeometry y="156" width="360" height="26" as="geometry" />
        </mxCell>
        <mxCell id="lV3ypTKFiCRqfz8kw8Yi-67" value="" style="line;strokeWidth=1;fillColor=none;align=left;verticalAlign=middle;spacingTop=-1;spacingLeft=3;spacingRight=3;rotatable=0;labelPosition=right;points=[];portConstraint=eastwest;" parent="lV3ypTKFiCRqfz8kw8Yi-60" vertex="1">
          <mxGeometry y="182" width="360" height="8" as="geometry" />
        </mxCell>
        <mxCell id="lV3ypTKFiCRqfz8kw8Yi-75" value="&lt;&lt;constructor&gt;&gt; + BookStoreItem(string authorName,&#xa;    string isniCode, string title, string publisher,&#xa;    DateTime published, BookBindingKind bookBinding,&#xa;    string isbnCode, decimal priceAmount, string priceCurrency,&#xa;    int amount)" style="text;strokeColor=none;fillColor=none;align=left;verticalAlign=top;spacingLeft=4;spacingRight=4;overflow=hidden;rotatable=0;points=[[0,0.5],[1,0.5]];portConstraint=eastwest;" parent="lV3ypTKFiCRqfz8kw8Yi-60" vertex="1">
          <mxGeometry y="190" width="360" height="80" as="geometry" />
        </mxCell>
        <mxCell id="lV3ypTKFiCRqfz8kw8Yi-76" value="&lt;&lt;constructor&gt;&gt; + BookStoreItem( BookPublication publication,&#xa;    BookPrice price, int amount)" style="text;strokeColor=none;fillColor=none;align=left;verticalAlign=top;spacingLeft=4;spacingRight=4;overflow=hidden;rotatable=0;points=[[0,0.5],[1,0.5]];portConstraint=eastwest;" parent="lV3ypTKFiCRqfz8kw8Yi-60" vertex="1">
          <mxGeometry y="270" width="360" height="40" as="geometry" />
        </mxCell>
        <mxCell id="lV3ypTKFiCRqfz8kw8Yi-71" value="+ ToString(): string" style="text;strokeColor=none;fillColor=none;align=left;verticalAlign=top;spacingLeft=4;spacingRight=4;overflow=hidden;rotatable=0;points=[[0,0.5],[1,0.5]];portConstraint=eastwest;" parent="lV3ypTKFiCRqfz8kw8Yi-60" vertex="1">
          <mxGeometry y="310" width="360" height="26" as="geometry" />
        </mxCell>
        <mxCell id="lV3ypTKFiCRqfz8kw8Yi-77" value="" style="endArrow=open;endSize=12;dashed=1;html=1;rounded=0;" parent="8sShPmPlEh92SBYfi-gu-1" source="lV3ypTKFiCRqfz8kw8Yi-60" target="lV3ypTKFiCRqfz8kw8Yi-43" edge="1">
          <mxGeometry width="160" relative="1" as="geometry">
            <mxPoint x="-20" y="440" as="sourcePoint" />
            <mxPoint x="140" y="440" as="targetPoint" />
          </mxGeometry>
        </mxCell>
        <mxCell id="lV3ypTKFiCRqfz8kw8Yi-78" value="BookPrice" style="swimlane;fontStyle=1;align=center;verticalAlign=top;childLayout=stackLayout;horizontal=1;startSize=26;horizontalStack=0;resizeParent=1;resizeParentMax=0;resizeLast=0;collapsible=1;marginBottom=0;" parent="8sShPmPlEh92SBYfi-gu-1" vertex="1">
          <mxGeometry x="-160" y="880" width="280" height="306" as="geometry" />
        </mxCell>
        <mxCell id="lV3ypTKFiCRqfz8kw8Yi-85" value="- amount: decimal" style="text;strokeColor=none;fillColor=none;align=left;verticalAlign=top;spacingLeft=4;spacingRight=4;overflow=hidden;rotatable=0;points=[[0,0.5],[1,0.5]];portConstraint=eastwest;" parent="lV3ypTKFiCRqfz8kw8Yi-78" vertex="1">
          <mxGeometry y="26" width="280" height="26" as="geometry" />
        </mxCell>
        <mxCell id="lV3ypTKFiCRqfz8kw8Yi-86" value="- currency: string" style="text;strokeColor=none;fillColor=none;align=left;verticalAlign=top;spacingLeft=4;spacingRight=4;overflow=hidden;rotatable=0;points=[[0,0.5],[1,0.5]];portConstraint=eastwest;" parent="lV3ypTKFiCRqfz8kw8Yi-78" vertex="1">
          <mxGeometry y="52" width="280" height="26" as="geometry" />
        </mxCell>
        <mxCell id="lV3ypTKFiCRqfz8kw8Yi-79" value="&lt;&lt;get, set&gt;&gt; + Amount: decimal" style="text;strokeColor=none;fillColor=none;align=left;verticalAlign=top;spacingLeft=4;spacingRight=4;overflow=hidden;rotatable=0;points=[[0,0.5],[1,0.5]];portConstraint=eastwest;" parent="lV3ypTKFiCRqfz8kw8Yi-78" vertex="1">
          <mxGeometry y="78" width="280" height="26" as="geometry" />
        </mxCell>
        <mxCell id="lV3ypTKFiCRqfz8kw8Yi-87" value="&lt;&lt;get, set&gt;&gt; + Currency: string" style="text;strokeColor=none;fillColor=none;align=left;verticalAlign=top;spacingLeft=4;spacingRight=4;overflow=hidden;rotatable=0;points=[[0,0.5],[1,0.5]];portConstraint=eastwest;" parent="lV3ypTKFiCRqfz8kw8Yi-78" vertex="1">
          <mxGeometry y="104" width="280" height="26" as="geometry" />
        </mxCell>
        <mxCell id="lV3ypTKFiCRqfz8kw8Yi-80" value="" style="line;strokeWidth=1;fillColor=none;align=left;verticalAlign=middle;spacingTop=-1;spacingLeft=3;spacingRight=3;rotatable=0;labelPosition=right;points=[];portConstraint=eastwest;" parent="lV3ypTKFiCRqfz8kw8Yi-78" vertex="1">
          <mxGeometry y="130" width="280" height="8" as="geometry" />
        </mxCell>
        <mxCell id="lV3ypTKFiCRqfz8kw8Yi-81" value="&lt;&lt;constructor&gt;&gt; + BookPrice()" style="text;strokeColor=none;fillColor=none;align=left;verticalAlign=top;spacingLeft=4;spacingRight=4;overflow=hidden;rotatable=0;points=[[0,0.5],[1,0.5]];portConstraint=eastwest;" parent="lV3ypTKFiCRqfz8kw8Yi-78" vertex="1">
          <mxGeometry y="138" width="280" height="26" as="geometry" />
        </mxCell>
        <mxCell id="lV3ypTKFiCRqfz8kw8Yi-88" value="&lt;&lt;constructor&gt;&gt; + BookPrice(decimal amount,&#xa;    string currency)" style="text;strokeColor=none;fillColor=none;align=left;verticalAlign=top;spacingLeft=4;spacingRight=4;overflow=hidden;rotatable=0;points=[[0,0.5],[1,0.5]];portConstraint=eastwest;" parent="lV3ypTKFiCRqfz8kw8Yi-78" vertex="1">
          <mxGeometry y="164" width="280" height="36" as="geometry" />
        </mxCell>
        <mxCell id="lV3ypTKFiCRqfz8kw8Yi-82" value="- ThrowExceptionIfAmountIsNotValid(&#xa;    decimal amount, string parameterName): void" style="text;strokeColor=none;fillColor=none;align=left;verticalAlign=top;spacingLeft=4;spacingRight=4;overflow=hidden;rotatable=0;points=[[0,0.5],[1,0.5]];portConstraint=eastwest;fontStyle=4" parent="lV3ypTKFiCRqfz8kw8Yi-78" vertex="1">
          <mxGeometry y="200" width="280" height="40" as="geometry" />
        </mxCell>
        <mxCell id="lV3ypTKFiCRqfz8kw8Yi-89" value="- ThrowExceptionIfCurrencyIsNotValid(&#xa;    string currency, string parameterName): void" style="text;strokeColor=none;fillColor=none;align=left;verticalAlign=top;spacingLeft=4;spacingRight=4;overflow=hidden;rotatable=0;points=[[0,0.5],[1,0.5]];portConstraint=eastwest;fontStyle=4" parent="lV3ypTKFiCRqfz8kw8Yi-78" vertex="1">
          <mxGeometry y="240" width="280" height="40" as="geometry" />
        </mxCell>
        <mxCell id="lV3ypTKFiCRqfz8kw8Yi-84" value="+ ToString(): string" style="text;strokeColor=none;fillColor=none;align=left;verticalAlign=top;spacingLeft=4;spacingRight=4;overflow=hidden;rotatable=0;points=[[0,0.5],[1,0.5]];portConstraint=eastwest;" parent="lV3ypTKFiCRqfz8kw8Yi-78" vertex="1">
          <mxGeometry y="280" width="280" height="26" as="geometry" />
        </mxCell>
        <mxCell id="lV3ypTKFiCRqfz8kw8Yi-92" value="" style="endArrow=open;endSize=12;dashed=1;html=1;rounded=0;" parent="8sShPmPlEh92SBYfi-gu-1" source="lV3ypTKFiCRqfz8kw8Yi-60" target="lV3ypTKFiCRqfz8kw8Yi-78" edge="1">
          <mxGeometry width="160" relative="1" as="geometry">
            <mxPoint x="170" y="611" as="sourcePoint" />
            <mxPoint x="250" y="611" as="targetPoint" />
          </mxGeometry>
        </mxCell>
        <mxCell id="lV3ypTKFiCRqfz8kw8Yi-93" value="BookBindingKind" style="swimlane;fontStyle=1;align=center;verticalAlign=top;childLayout=stackLayout;horizontal=1;startSize=26;horizontalStack=0;resizeParent=1;resizeParentMax=0;resizeLast=0;collapsible=1;marginBottom=0;" parent="8sShPmPlEh92SBYfi-gu-1" vertex="1">
          <mxGeometry x="320" y="260" width="160" height="60" as="geometry" />
        </mxCell>
        <mxCell id="lV3ypTKFiCRqfz8kw8Yi-100" value="" style="endArrow=open;endSize=12;dashed=1;html=1;rounded=0;" parent="8sShPmPlEh92SBYfi-gu-1" source="lV3ypTKFiCRqfz8kw8Yi-43" target="lV3ypTKFiCRqfz8kw8Yi-93" edge="1">
          <mxGeometry width="160" relative="1" as="geometry">
            <mxPoint x="570" y="611" as="sourcePoint" />
            <mxPoint x="650" y="611" as="targetPoint" />
          </mxGeometry>
        </mxCell>
      </root>
    </mxGraphModel>
  </diagram>
</mxfile>
